<svg t="1596711102602" class="icon" viewBox="0 0 1024 1024" version="1.1" xmlns="http://www.w3.org/2000/svg" p-id="5265" width="300" height="300">
	<path d="M849.513502 524.698207l-308.405045-310.430168c-6.833639-6.867408-15.761985-10.1645-24.656563-10.095939-1.201361-0.103354-2.231831-0.686638-3.432169-0.686638-5.015224 0-9.68457 1.167592-13.978363 3.090385-4.325515 1.647523-8.445346 4.155646-11.948123 7.658424l-278.290167 277.807167c-13.426801 13.392008-13.46057 35.130102-0.034792 48.556902 6.695492 6.729262 15.487739 10.096962 24.312732 10.096962 8.7902 0 17.546631-3.367701 24.27794-10.028401l221.320665-220.97581 0 604.927459c0 18.99154 15.384385 34.340109 34.340109 34.340109 18.952654 0 34.340109-15.34857 34.340109-34.340109L547.359834 318.007751l253.460666 255.111259c6.696516 6.730285 15.557324 10.129708 24.347524 10.129708s17.512862-3.331885 24.208355-9.994632C862.872764 559.897893 862.90551 538.123984 849.513502 524.698207zM890.757858 134.805242 135.282614 134.805242c-18.954701 0-34.340109-15.384385-34.340109-34.340109s15.384385-34.340109 34.340109-34.340109l755.475244 0c18.98847 0 34.339086 15.384385 34.339086 34.340109S909.745305 134.805242 890.757858 134.805242z" p-id="5266">
	</path>
</svg>
