<svg t="1608186164310" class="icon" viewBox="0 0 1024 1024" version="1.1" xmlns="http://www.w3.org/2000/svg" p-id="6621" width="16" height="16"><path d="M511.9 458.3c35.1 0 63.8 28.7 63.8 63.8v148.8c0 35.1-28.7 63.8-63.8 63.8-35.1 0-63.8-28.7-63.8-63.8V522.1c0-35.1 28.7-63.8 63.8-63.8z"  p-id="6622"></path><path d="M512.2 350.9m-64.1 0a64.1 64.1 0 1 0 128.2 0 64.1 64.1 0 1 0-128.2 0Z"  p-id="6623"></path><path d="M955.7 511.2c0-245.6-199.1-444.7-444.7-444.7S66.3 265.5 66.3 511.1 265.4 955.8 511 955.8s444.7-199 444.7-444.6z m-124.4 0c0 176.9-143.4 320.3-320.3 320.3S190.7 688 190.7 511.1 334.1 190.8 511 190.8s320.3 143.5 320.3 320.4z"  p-id="6624"></path></svg>