<svg t="1608196243616" class="icon" viewBox="0 0 1024 1024" version="1.1" xmlns="http://www.w3.org/2000/svg" p-id="11228" width="16" height="16"><path d="M0 0h1024v1024H0z"  opacity=".01" p-id="11229"></path><path d="M294.4512 680.96L512 897.4848l217.5488-216.576c20.48-20.4288 53.76-20.4288 74.24 0 20.5312 20.48 20.5312 53.7088 0 74.1376L549.12 1008.64c-20.48 20.48-53.76 20.48-74.24 0L220.16 755.0464c-20.5312-20.48-20.5312-53.6064 0-74.0864 20.48-20.48 53.76-20.48 74.24 0zM474.88 15.36c20.48-20.48 53.76-20.48 74.24 0L803.84 268.9536c20.5312 20.48 20.5312 53.6064 0 74.0864-20.48 20.48-53.76 20.48-74.24 0L512 126.5152l-217.5488 216.576c-20.48 20.4288-53.76 20.4288-74.24 0-20.5312-20.48-20.5312-53.7088 0-74.1376z"  p-id="11230"></path></svg>