<svg t="1608195195565" class="icon" viewBox="0 0 1024 1024" version="1.1" xmlns="http://www.w3.org/2000/svg" p-id="10712" width="16" height="16"><path d="M512 947.2C271.36 947.2 76.8 752.64 76.8 512S271.36 76.8 512 76.8 947.2 271.36 947.2 512 752.64 947.2 512 947.2M512 0C230.4 0 0 230.4 0 512s230.4 512 512 512 512-230.4 512-512S793.6 0 512 0" p-id="10713"></path><path d="M716.8 353.28l-61.44-46.08L512 455.68 368.64 307.2l-61.44 46.08L455.68 512 307.2 665.6l61.44 51.2L512 568.32 655.36 716.8l61.44-51.2L563.2 512z" p-id="10714"></path></svg>