<svg t="1606558551499" class="icon" viewBox="0 0 1024 1024" version="1.1" xmlns="http://www.w3.org/2000/svg" p-id="12181" width="300" height="300"><path d="M500.515589 678.188066c11.516401-6.398001 21.753202-12.156201 30.710403-16.634801-14.715401 31.350203-22.393002 67.179007-22.393002 104.28741v4.4786c-10.876601-1.2796-21.753202-2.5592-32.629803-5.1184-19.833802-3.8388-39.667604-10.236801-58.221806-19.194002-27.511403-15.995002-51.184005-37.108404-69.738207-62.700406l-0.6398-0.6398 4.4786 1.2796c9.597001 3.8388 19.194002 6.398001 29.430803 7.677601 40.307404 8.317401 81.894408 3.8388 119.002812-13.435802zM832.571821 517.598251c-30.710403-58.861606-78.055608-87.652609-121.562012-122.841612a269.739706 269.739706 0 0 1-92.771009-119.642612c-23.672602-61.420806-12.796001-121.562012 5.758201-169.547017-39.027804-12.156201-80.614808-18.554202-123.481412-18.554202-115.164011 0-219.451421 46.065604-294.947829 121.562012h-0.6398l0.6398 0.6398c14.075601-2.5592 27.511403-3.8388 41.587004-3.8388 25.592002 0 50.544205 4.4786 74.856607 13.435801 4.4786-5.758201 9.597001-10.236801 15.355202-14.715401v5.7582c8.317401-10.236801 19.194002-18.554202 31.990003-23.672602-1.2796 1.2796-1.2796 2.5592-1.2796 4.478601 15.355201-8.957201 32.629803-15.355201 49.904405-17.914402-2.5592 1.2796-7.037801 3.8388-9.597001 5.7582 7.677601-3.199 15.995002-5.758201 24.952202-5.7582 14.075601-1.2796 29.430803 4.4786 26.871603 5.7582-6.398001 1.9194-12.156201 4.4786-17.914402 7.037801-1.2796 1.2796 7.037801-0.6398 5.118401 0.6398-29.430803 19.194002-52.463605 47.345205-65.259607 79.335208v0.6398c5.1184 22.393002 24.312402 39.667604 47.985005 43.506404 67.179007 5.758201 79.975008 11.516401 81.894408 18.554202v3.199c-0.6398 1.9194-0.6398 3.8388-0.6398 5.758201a63.340206 63.340206 0 0 1-21.753202 36.468603c-3.199 3.199-6.398001 5.1184-9.597001 7.677601-2.5592 1.2796-14.075601 5.758201-27.511403 11.516401-16.634802 6.398001-33.269603 14.715401-48.624805 23.672603-2.5592 1.9194-5.1184 3.8388-7.0378 5.7582-0.6398 0.6398-2.5592 3.199-2.5592 3.199001 1.2796 2.5592 1.9194 5.1184 2.5592 7.6776-3.199-3.199-5.758201-1.9194-3.838801 1.2796 1.9194 5.1184 2.5592 10.876601 1.919401 15.995002 0.6398 9.597001-1.2796 19.833802-5.118401 28.791003-4.4786-3.199-9.597001-5.758201-14.075601-8.317401 5.1184 3.8388 8.317401 8.317401 10.876601 13.435801 1.2796 4.4786-0.6398 5.758201-0.6398 5.758201-3.199-3.8388-6.398001-7.677601-10.876601-9.597001-7.037801-3.8388-19.194002-9.597001-24.312403-12.156201-0.6398 0.6398-1.2796 0-1.9194 0.6398 1.2796 1.9194 3.199 5.1184 3.8388 7.0378-1.2796-0.6398-4.4786-2.5592-9.597-4.4786-8.317401 3.199-15.355201 9.597001-19.833802 17.914402-7.677601 15.995002-6.398001 34.549203 1.9194 49.904405 8.957201 12.156201 19.194002 22.393002 31.350203 30.710403-1.9194 0-5.1184-1.2796-5.758201-1.2796 9.597001 6.398001 19.833802 12.796001 30.710403 17.914401v0.6398c-1.2796 0-10.236801-2.5592-7.0378-1.2796 2.5592 1.9194 5.758201 3.199 8.9572 5.118401 48.624805 24.952202 83.174008-0.6398 120.282412-5.758201 23.672602-4.4786 47.985005 0 67.818807 12.796001 46.065604-53.743205 114.524211-88.292409 190.660418-89.572008-3.199-21.113402-8.957201-42.226804-17.274601-62.060606 30.710403 17.914402 56.942206 40.947204 78.695407 68.458606l8.957201 2.559201z" fill="#4687F0" p-id="12182"></path><path d="M671.982006 1005.125898c-35.828803 10.876601-82.534208 18.554202-143.955014 18.554202-50.544205 0-100.44861-7.037801-149.073415-21.113402a207.93502 207.93502 0 0 1-10.876601-3.8388c-40.947204-12.156201-79.335208-30.070603-115.164011-53.103406a489.766948 489.766948 0 0 1-196.418619-216.252421 425.850922 425.850922 0 0 1-41.587005-207.93502c-5.758201 17.274602-10.876601 34.549203-14.715401 52.463605 0-60.141206 11.516401-120.282412 34.549203-175.945017-12.156201 15.995002-22.393002 33.909403-30.710403 51.823805 12.156201-47.985005 31.350203-93.410809 56.942206-135.637613 8.317401-12.796001 17.274602-24.952202 27.511403-35.189004v-0.6398c-0.6398-5.758201 0-11.516401 0.6398-17.274602 3.199-33.909403 12.156201-66.539206 26.871602-97.249609l0.6398-1.2796v5.1184c1.2796-3.8388 2.5592-8.317401 4.478601-12.156201 2.5592-3.8388 5.1184-8.317401 8.317401-11.516401 0-0.6398 0.6398-0.6398 0.6398-0.6398 0 1.2796-0.6398 4.4786-0.6398 5.758201v1.2796c1.2796-2.5592 2.5592-5.1184 4.4786-9.597001 4.4786-12.156201 12.796001-22.393002 23.672602-30.070603h0.6398v4.4786c0 17.274602 3.199 33.909403 8.957201 49.904405 0.6398 0 1.2796-2.5592 1.919401-2.5592s0.6398 0 0.6398 0.6398c1.9194 3.199 3.8388 7.037801 5.7582 10.236801 2.5592 5.1184 5.1184 8.957201 7.677601 12.796001h1.2796c5.758201 8.957201 12.156201 15.355201 20.473602 22.393002l0.6398 0.6398c14.075601-2.5592 27.511403-3.8388 41.587004-3.8388 25.592002 0 50.544205 4.4786 74.856607 13.435801 4.4786-5.758201 9.597001-10.236801 15.355202-14.715401v5.7582c8.317401-10.236801 19.194002-18.554202 31.990003-23.672602-1.2796 1.2796-1.2796 2.5592-1.2796 4.478601 15.355201-8.957201 32.629803-15.355201 49.904405-17.914402-2.5592 1.2796-7.037801 3.8388-9.597001 5.7582 7.677601-3.199 15.995002-5.758201 24.952202-5.7582 14.075601-1.2796 29.430803 4.4786 26.871603 5.7582-6.398001 1.9194-12.156201 4.4786-17.914402 7.037801-1.2796 1.2796 7.037801-0.6398 5.118401 0.6398-29.430803 19.194002-52.463605 47.345205-65.259607 79.335208v0.6398c5.1184 22.393002 24.312402 39.667604 47.985005 43.506404 67.179007 5.758201 79.975008 11.516401 81.894408 18.554202v3.199c-0.6398 1.9194-0.6398 3.8388-0.6398 5.758201a63.340206 63.340206 0 0 1-21.753202 36.468603c-3.199 3.199-6.398001 5.1184-9.597001 7.677601-2.5592 1.2796-14.075601 5.758201-27.511403 11.516401-16.634802 6.398001-33.269603 14.715401-48.624805 23.672603-2.5592 1.9194-5.1184 3.8388-7.0378 5.7582-0.6398 0.6398-2.5592 3.199-2.5592 3.199001 1.2796 2.5592 1.9194 5.1184 2.5592 7.6776-3.199-3.199-5.758201-1.9194-3.838801 1.2796 1.9194 5.1184 2.5592 10.876601 1.919401 15.995002 0.6398 9.597001-1.2796 19.833802-5.118401 28.791003-4.4786-3.199-9.597001-5.758201-14.075601-8.317401 5.1184 3.8388 8.317401 8.317401 10.876601 13.435801 1.2796 4.4786-0.6398 5.758201-0.6398 5.758201-3.199-3.8388-6.398001-7.677601-10.876601-9.597001-7.037801-3.8388-19.194002-9.597001-24.312403-12.156201-0.6398 0.6398-1.2796 0-1.9194 0.6398 1.2796 1.9194 3.199 5.1184 3.8388 7.0378-1.2796-0.6398-4.4786-2.5592-9.597-4.4786-8.317401 3.199-15.355201 9.597001-19.833802 17.914402-7.677601 15.995002-6.398001 34.549203 1.9194 49.904405 8.957201 12.156201 19.194002 22.393002 31.350203 30.710403-1.9194 0-5.1184-1.2796-5.758201-1.2796 9.597001 6.398001 19.833802 12.796001 30.710403 17.914401v0.6398c-1.2796 0-10.236801-2.5592-7.0378-1.2796 2.5592 1.9194 5.758201 3.199 8.9572 5.118401 48.624805 24.952202 83.174008-0.6398 120.282412-5.758201 23.672602-4.4786 47.985005 0 67.818807 12.796001-16.634802 19.194002-30.070603 40.307404-40.307404 63.340207-8.957201 4.4786-19.194002 10.236801-30.710403 16.634801-37.108404 17.274602-78.695408 21.753202-119.002812 13.435802-10.236801-1.2796-19.833802-3.8388-29.430803-7.677601l-4.4786-1.2796 0.6398 0.6398c18.554202 25.592002 42.226804 46.705405 69.738207 62.700406 18.554202 8.957201 38.388004 15.355201 58.221806 19.194002 10.876601 2.5592 21.753202 3.8388 32.629803 5.1184a255.280225 255.280225 0 0 0 163.149016 234.806623zM823.61462 515.03905c-18.554202-4.4786-37.748204-6.398001-57.582005-6.398h-3.838801c-3.199-21.113402-8.957201-42.226804-17.274601-62.060606 30.710403 17.914402 56.942206 40.947204 78.695407 68.458606zM1023.87204 512.47985v5.758201c-1.9194 44.786004-11.516401 88.932209-28.791003 130.519212-32.629803-63.980006-91.491409-112.604811-162.509216-131.159012-30.710403-58.861606-78.055608-87.652609-121.562012-122.841612a269.739706 269.739706 0 0 1-92.771009-119.642612c-23.672602-61.420806-12.796001-121.562012 5.758201-169.547017 25.592002-62.700406 64.619806-105.56701 64.619806-105.56701s-7.677601 31.350203 58.861606 91.491409c13.435801 12.796001 35.828803 30.070603 61.420806 55.662605 3.8388-19.194002 8.957201-38.388004 15.995002-56.942205 5.1184 30.710403 16.634802 60.141206 32.629803 86.373008 24.952202 34.549203 46.705405 53.103405 65.259606 82.534208 4.4786 5.1184 8.317401 10.876601 12.156201 16.634802 10.876601 14.715401 20.473602 30.710403 28.151203 46.705404 12.796001 24.952202 23.032802 51.184005 31.350203 77.415808 6.398001 21.753202 10.236801 43.506404 12.156201 65.899406 6.398001-8.317401 10.236801-12.796001 10.236801-12.796001s1.2796 5.758201 2.559201 14.715402c3.199 14.715401 4.4786 30.070603 4.4786 44.786004z" fill="#FD7026" p-id="12183"></path><path d="M979.277976 766.480475a213.053421 213.053421 0 1 1-426.106842 0.06398 213.053421 213.053421 0 0 1 426.106842-0.06398z m-204.99194 164.940456l79.655107-178.760137a8.829241 8.829241 0 0 0-8.06148-12.412122h-34.357264a8.829241 8.829241 0 0 1-8.829241-8.829241V605.122899a8.829241 8.829241 0 0 0-8.76526-8.829241h-55.854546a8.765261 8.765261 0 0 0-8.765261 8.829241v126.360512a8.829241 8.829241 0 0 1-8.765261 8.829241h-33.973383c-6.398001 0-10.620681 6.589941-8.061481 12.412122l79.655108 178.760137a8.829241 8.829241 0 0 0 16.122962-0.06398z" fill="#4687F0" p-id="12184"></path></svg>