<svg t="1627442656526" class="icon" viewBox="0 0 1024 1024" version="1.1" xmlns="http://www.w3.org/2000/svg" p-id="4918" width="200" height="200"><path d="M924.5 170.7H100.1c-19.9 0-36-16.1-36-36s16.1-36 36-36h824.4c19.9 0 36 16.1 36 36s-16.1 36-36 36zM690 473.1H100.1c-19.9 0-36-16.1-36-36s16.1-36 36-36H690c19.9 0 36 16.1 36 36s-16.1 36-36 36zM287.4 775.5H100.1c-19.9 0-36-16.1-36-36s16.1-36 36-36h187.3c19.9 0 36 16.1 36 36s-16.1 36-36 36zM614.9 924.7c-10.5 0-20.5-4.6-27.3-12.6L420.3 717c-12.9-15.1-11.2-37.8 3.9-50.8 15.1-12.9 37.8-11.2 50.8 3.9l138.3 161.4 281.9-367.6c12.1-15.8 34.7-18.8 50.5-6.7 15.8 12.1 18.8 34.7 6.7 50.5l-309 402.9c-6.6 8.6-16.7 13.8-27.6 14.1h-0.9z" p-id="4919"></path></svg>