<svg t="1627442586174" class="icon" viewBox="0 0 1024 1024" version="1.1" xmlns="http://www.w3.org/2000/svg" p-id="3363" width="200" height="200"><path d="M791.522791 425.530395 463.220455 425.530395c-7.030434 0-12.752513-5.706316-12.752513-12.752513s5.706316-12.752513 12.752513-12.752513l328.302335 0c7.030434 0 12.752513 5.706316 12.752513 12.752513S798.568988 425.530395 791.522791 425.530395z" p-id="3364" fill="#2c2c2c"></path><path d="M791.522791 704.903434 463.220455 704.903434c-7.030434 0-12.752513-5.706316-12.752513-12.752513s5.706316-12.752513 12.752513-12.752513l328.302335 0c7.030434 0 12.752513 5.706316 12.752513 12.752513S798.568988 704.903434 791.522791 704.903434z" p-id="3365" fill="#2c2c2c"></path><path d="M800.492111 72.936808l-12.626407 0L787.865704 15.763304c0-8.701344-7.046197-15.763304-15.763304-15.763304s-15.763304 7.06196-15.763304 15.763304l0 57.173504-55.171564 0L701.167531 15.763304c0-8.701344-7.046197-15.763304-15.763304-15.763304s-15.763304 7.06196-15.763304 15.763304l0 57.173504-55.171564 0L614.469359 15.763304c0-8.701344-7.046197-15.763304-15.763304-15.763304s-15.763304 7.06196-15.763304 15.763304l0 57.173504-55.171564 0L527.771186 15.763304c0-8.701344-7.046197-15.763304-15.763304-15.763304s-15.763304 7.06196-15.763304 15.763304l0 57.173504-55.171564 0L441.073013 15.763304c0-8.701344-7.046197-15.763304-15.763304-15.763304s-15.763304 7.06196-15.763304 15.763304l0 57.173504-55.171564 0L354.37484 15.763304c0-8.701344-7.046197-15.763304-15.763304-15.763304s-15.763304 7.06196-15.763304 15.763304l0 57.173504-55.171564 0L267.676668 15.763304c0-8.701344-7.046197-15.763304-15.763304-15.763304s-15.763304 7.06196-15.763304 15.763304l0 57.173504-12.64217 0c-78.233278 0-141.869737 63.652222-141.869737 141.869737l0 667.307954c0 78.217515 63.636459 141.869737 141.869737 141.869737l576.984221 0c78.233278 0 141.869737-63.652222 141.869737-141.869737L942.361848 214.806545C942.361848 136.58903 878.725389 72.936808 800.492111 72.936808zM910.83524 882.130263c0 60.846354-49.512538 110.343129-110.343129 110.343129L223.507889 992.473392c-60.830591 0-110.343129-49.496775-110.343129-110.343129L113.16476 214.806545c0-60.846354 49.512538-110.343129 110.343129-110.343129l12.64217 0 0 45.792399c0 8.701344 7.046197 15.763304 15.763304 15.763304s15.763304-7.06196 15.763304-15.763304L267.676668 104.463417l55.171564 0 0 45.792399c0 8.701344 7.046197 15.763304 15.763304 15.763304s15.763304-7.06196 15.763304-15.763304L354.37484 104.463417l55.171564 0 0 45.792399c0 8.701344 7.046197 15.763304 15.763304 15.763304s15.763304-7.06196 15.763304-15.763304L441.073013 104.463417l55.171564 0 0 45.792399c0 8.701344 7.046197 15.763304 15.763304 15.763304s15.763304-7.06196 15.763304-15.763304L527.771186 104.463417l55.171564 0 0 45.792399c0 8.701344 7.046197 15.763304 15.763304 15.763304s15.763304-7.06196 15.763304-15.763304L614.469359 104.463417l55.171564 0 0 45.792399c0 8.701344 7.046197 15.763304 15.763304 15.763304s15.763304-7.06196 15.763304-15.763304L701.167531 104.463417l55.171564 0 0 45.792399c0 8.701344 7.046197 15.763304 15.763304 15.763304s15.763304-7.06196 15.763304-15.763304L787.865704 104.463417l12.626407 0c60.830591 0 110.343129 49.496775 110.343129 110.343129L910.83524 882.130263zM374.772556 352.404427l-77.492403 123.99415c-2.301442 3.67285-6.005819 6.242268-10.261911 7.10925-1.024615 0.204923-2.064993 0.315266-3.089608 0.315266-3.247241 0-6.431428-0.993088-9.11119-2.900448l-64.282754-45.571712c-7.10925-5.028494-8.78016-14.880559-3.735903-21.974046 5.012731-7.10925 14.849032-8.795924 21.974046-3.751666l50.663259 35.908807 68.633426-109.82294c4.602885-7.377226 14.31308-9.647142 21.721833-5.012731C377.137051 335.301242 379.391204 345.027201 374.772556 352.404427zM374.772556 632.203076l-77.492403 123.99415c-2.301442 3.67285-6.005819 6.242268-10.261911 7.10925-1.024615 0.204923-2.064993 0.315266-3.089608 0.315266-3.247241 0-6.431428-0.993088-9.11119-2.900448l-64.282754-45.571712c-7.10925-5.028494-8.78016-14.880559-3.735903-21.974046 5.012731-7.125013 14.849032-8.78016 21.974046-3.751666l50.663259 35.908807 68.633426-109.82294c4.602885-7.377226 14.31308-9.631379 21.721833-5.012731C377.137051 615.099891 379.391204 624.825849 374.772556 632.203076z" p-id="3366" fill="#2c2c2c"></path></svg>