<svg t="1606378127798" class="icon" viewBox="0 0 1025 1024" version="1.1" xmlns="http://www.w3.org/2000/svg" p-id="15591" width="300" height="300"><path d="M513.713483 790.091977l0 70.706275 253.981023 0 33.862326 33.862326 0 33.862326L158.14005 928.522904l0-33.862326 33.862326-33.862326 253.981023 0 0-70.738861L82.991212 790.059391C37.387049 790.05396 0 752.650618 0 707.051886L0 178.468308c0-45.604162 37.349032-82.991212 82.991212-82.991212l793.703596 0c45.70192 0 83.007505 37.33817 83.007505 82.991212L959.702313 347.855972c-10.454688-11.540889-21.52851-22.402902-33.862326-31.765958l0-137.621707c0-27.08443-22.028163-49.123455-49.145179-49.123455L82.991212 129.344853c-27.117016 0-49.123455 22.039025-49.123455 49.123455l0 427.018324c0 27.117016 22.006439 49.145179 49.123455 49.145179l489.789899 0c46.033212 65.845524 121.795754 106.284799 203.146802 106.284799 13.523206 0 26.9215-1.45551 40.178587-3.67136l19.051971 32.873883L513.713483 790.119132 513.713483 790.091977zM961.022048 406.076363c58.997025 102.18982 23.874705 233.40837-78.380287 292.307637-102.184389 58.997025-233.343198 23.977894-292.340223-78.34227-58.975301-102.124648-23.874705-233.278026 78.315115-292.258758C770.763025 268.785947 901.992437 303.87025 961.022048 406.076363zM930.331429 423.852048c-49.275523-85.304821-158.704875-114.588808-243.993402-65.465353-85.288528 49.275523-114.65398 158.672289-65.313285 243.960816 49.237506 85.288528 158.639703 114.789755 243.890213 65.508802C950.236068 618.521048 979.509194 509.124282 930.331429 423.852048zM936.414157 685.186654l-92.001252 53.180417 70.907222 122.556095 92.001252-53.180417L936.414157 685.186654zM1016.841933 824.611455l-92.066424 53.109813c14.750614 25.46599 47.222602 34.128445 72.656006 19.513607S1031.559961 850.077445 1016.841933 824.611455zM586.86371 247.871141 141.206171 247.871141l0 33.862326 445.657539 0L586.86371 247.871141zM471.384217 327.848144 141.206171 327.848144l0 33.862326 330.172615 0L471.378786 327.848144zM471.384217 407.863164 141.206171 407.863164l0 33.862326 330.172615 0L471.378786 407.863164zM141.206171 521.718786l330.172615 0 0-33.862326L141.206171 487.85646 141.206171 521.718786z" p-id="15592"></path></svg>